<svg width="393" height="24" viewBox="0 0 393 24" fill="none" xmlns="http://www.w3.org/2000/svg">
<rect x="392.5" y="23.5" width="49" height="23" transform="rotate(180 392.5 23.5)" stroke="#BDBDBD"/>
<rect x="245.5" y="23.5" width="48" height="23" transform="rotate(180 245.5 23.5)" fill="#127046" fill-opacity="0.4286" stroke="#BDBDBD"/>
<rect x="343.5" y="23.5" width="49" height="23" transform="rotate(180 343.5 23.5)" fill="#127046" fill-opacity="0.1429" stroke="#BDBDBD"/>
<rect x="197.5" y="23.5" width="49" height="23" transform="rotate(180 197.5 23.5)" fill="#127046" fill-opacity="0.5714" stroke="#BDBDBD"/>
<rect x="100" y="24" width="50" height="24" transform="rotate(180 100 24)" fill="#127046" fill-opacity="0.8571"/>
<rect x="99.5" y="23.5" width="49" height="23" transform="rotate(180 99.5 23.5)" stroke="white" stroke-opacity="0.8"/>
<rect x="294.5" y="23.5" width="49" height="23" transform="rotate(180 294.5 23.5)" fill="#127046" fill-opacity="0.2857" stroke="#BDBDBD"/>
<rect x="148.5" y="23.5" width="49" height="23" transform="rotate(180 148.5 23.5)" fill="#127046" fill-opacity="0.7143" stroke="#BDBDBD"/>
<rect x="50.4834" y="23.5" width="49.9838" height="23" transform="rotate(180 50.4834 23.5)" fill="#127046" stroke="#BDBDBD"/>
</svg>
