<svg width="400" height="24" viewBox="0 0 400 24" fill="none" xmlns="http://www.w3.org/2000/svg">
<rect x="399.5" y="23.5" width="49.8905" height="23" transform="rotate(180 399.5 23.5)" stroke="#BDBDBD"/>
<rect x="249.882" y="23.5" width="48.8727" height="23" transform="rotate(180 249.882 23.5)" fill="#C1415C" fill-opacity="0.4286" stroke="#BDBDBD"/>
<rect x="349.627" y="23.5" width="49.8905" height="23" transform="rotate(180 349.627 23.5)" fill="#C1415C" fill-opacity="0.1429" stroke="#BDBDBD"/>
<rect x="201.027" y="23.5" width="49.8905" height="23" transform="rotate(180 201.027 23.5)" fill="#C1415C" fill-opacity="0.5714" stroke="#BDBDBD"/>
<rect x="101.781" y="24" width="50.8905" height="24" transform="rotate(180 101.781 24)" fill="#C1415C" fill-opacity="0.8571"/>
<rect x="101.281" y="23.5" width="49.8905" height="23" transform="rotate(180 101.281 23.5)" stroke="white" stroke-opacity="0.8"/>
<rect x="299.755" y="23.5" width="49.8905" height="23" transform="rotate(180 299.755 23.5)" fill="#C1415C" fill-opacity="0.2857" stroke="#BDBDBD"/>
<rect x="151.154" y="23.5" width="49.8905" height="23" transform="rotate(180 151.154 23.5)" fill="#C1415C" fill-opacity="0.7143" stroke="#BDBDBD"/>
<rect x="51.3916" y="23.5" width="50.8918" height="23" transform="rotate(180 51.3916 23.5)" fill="#C1415C" stroke="#BDBDBD"/>
</svg>
