<svg width="297" height="98" viewBox="0 0 297 98" fill="none" xmlns="http://www.w3.org/2000/svg">
<path d="M0 96.571V95.4296C1.29079 95.1276 2.18418 94.5172 2.68015 93.6047C3.17294 92.6923 3.42092 91.2107 3.42092 89.1569V27.4818C3.42092 25.5074 3.17294 24.0609 2.68015 23.1484C2.18418 22.2359 1.29397 21.6287 0 21.3235V20.1821H16.7612C24.2103 20.1821 29.8536 21.6637 33.691 24.63C37.5284 27.5931 39.4487 31.8883 39.4487 37.5125C39.4487 46.8628 34.3936 52.7158 24.2866 55.0717V55.4151C29.9871 56.1749 34.3777 58.1715 37.4553 61.4017C40.5328 64.6318 42.0716 69.175 42.0716 75.0249C42.0716 81.7142 40.0559 86.9791 36.0277 90.8165C31.9964 94.6571 26.4104 96.5742 19.2665 96.5742H0V96.571ZM11.0608 54.1592H17.2159C21.8513 54.1592 25.3867 52.754 27.8188 49.9403C30.251 47.1298 31.4686 43.0985 31.4686 37.8558C31.4686 32.6863 30.2891 28.868 27.9333 26.3976C25.5774 23.9273 21.8131 22.6938 16.6468 22.6938H11.0608V54.1592V54.1592ZM11.0608 94.0625H18.9263C23.7907 94.0625 27.4945 92.4475 30.0411 89.2173C32.5878 85.9871 33.8595 81.3708 33.8595 75.3651C33.8595 68.9811 32.5496 64.2694 29.9267 61.2268C27.3038 58.1874 23.2565 56.6677 17.785 56.6677H11.0576V94.0625H11.0608Z" fill="#BDBDBD"/>
<path d="M92.8037 96.571V95.4296C94.0945 95.1276 94.9879 94.479 95.4839 93.4903C95.9766 92.5047 96.2246 91.0581 96.2246 89.1569V27.4818C96.2246 25.5837 95.9766 24.1562 95.4839 23.2056C94.9879 22.255 94.0977 21.6287 92.8037 21.3235V20.1821H108.195V21.3235C106.522 21.6287 105.381 22.2741 104.774 23.2629C104.163 24.2516 103.861 25.8476 103.861 28.0509V94.0625H109.333C112.22 94.0625 114.766 93.7414 116.973 93.0929C119.176 92.4475 121.115 91.3093 122.788 89.6719C124.46 88.0378 125.922 85.6819 127.178 82.6044C128.434 79.5268 129.553 75.5559 130.542 70.6916H131.683L129.175 96.571H92.8037Z" fill="#BDBDBD"/>
<path d="M134.188 96.571V95.4296C135.479 95.1276 136.373 94.5172 136.869 93.6047C137.361 92.6923 137.609 91.2107 137.609 89.1569V27.4818C137.609 25.5074 137.361 24.0609 136.869 23.1484C136.373 22.2359 135.482 21.6287 134.188 21.3235V20.1821H150.95C158.399 20.1821 164.042 21.6637 167.879 24.63C171.717 27.5931 173.637 31.8883 173.637 37.5125C173.637 46.8628 168.582 52.7158 158.475 55.0717V55.4151C164.176 56.1749 168.566 58.1715 171.644 61.4017C174.721 64.6318 176.26 69.175 176.26 75.0249C176.26 81.7142 174.244 86.9791 170.216 90.8165C166.185 94.6571 160.599 96.5742 153.455 96.5742H134.188V96.571ZM145.249 54.1592H151.404C156.04 54.1592 159.575 52.754 162.007 49.9403C164.439 47.1298 165.654 43.0985 165.654 37.8558C165.654 32.6863 164.474 28.868 162.119 26.3976C159.763 23.9273 155.998 22.6938 150.832 22.6938H145.246V54.1592H145.249ZM145.249 94.0625H153.115C157.979 94.0625 161.683 92.4475 164.23 89.2173C166.776 85.9871 168.048 81.3708 168.048 75.3651C168.048 68.9811 166.738 64.2694 164.115 61.2268C161.492 58.1874 157.445 56.6677 151.973 56.6677H145.246V94.0625H145.249Z" fill="#BDBDBD"/>
<path d="M179.91 96.571V95.4296C181.201 95.1276 182.094 94.5172 182.59 93.6047C183.083 92.6923 183.331 91.1726 183.331 89.0456V27.7075C183.331 25.5043 183.083 23.9655 182.59 23.0912C182.094 22.2169 181.204 21.6287 179.91 21.3235V20.1821H194.274V21.3235C193.057 21.6287 192.201 22.2359 191.709 23.1484C191.213 24.0609 190.968 25.5806 190.968 27.7075V89.0456C190.968 91.0963 191.213 92.6001 191.709 93.5507C192.201 94.5013 193.057 95.1276 194.274 95.4328V96.5742H179.91V96.571Z" fill="#BDBDBD"/>
<path d="M198.489 96.571V95.4296C200.009 94.6698 201.204 93.662 202.082 92.4093C202.956 91.1567 203.563 89.3699 203.907 87.0522C204.25 84.7345 204.419 81.5997 204.419 77.6447V27.7075L203.277 25.6569C202.136 23.5299 200.731 22.0865 199.058 21.3235V20.1821H209.318L241.015 77.4189V38.3136C241.015 34.6638 240.825 31.777 240.446 29.6501C240.065 27.5231 239.4 25.8508 238.45 24.6331C237.499 23.4186 236.075 22.3154 234.174 21.3267V20.1853H249.565V21.3267C248.198 22.0865 247.113 23.0753 246.315 24.2898C245.517 25.5074 244.964 27.1798 244.662 29.3067C244.357 31.4368 244.207 34.2855 244.207 37.859V97.1465H243.181L207.611 33.408V77.19C207.611 80.3089 207.725 82.8714 207.954 84.8871C208.183 86.9028 208.58 88.5751 209.153 89.904C209.722 91.2361 210.558 92.3171 211.661 93.1533C212.761 93.9894 214.15 94.7493 215.823 95.4328V96.5742H198.489V96.571Z" fill="#BDBDBD"/>
<path d="M254.356 20.1821H292.095L293.007 39.5631H292.095C291.335 35.6875 290.384 32.6068 289.246 30.3272C288.105 28.0477 286.852 26.3754 285.485 25.3103C284.118 24.2484 282.636 23.5426 281.037 23.2025C279.441 22.8591 277.807 22.6906 276.135 22.6906H265.417V54.1592H269.865C273.893 54.1592 277.009 53.4566 279.215 52.0514C281.419 50.6461 283.015 47.966 284.003 44.0141H284.916V67.614H284.003C283.167 64.4983 282.064 62.1615 280.697 60.6037C279.33 59.0458 277.734 57.9998 275.909 57.4689C274.084 56.9379 272.068 56.6709 269.865 56.6709H265.417V94.0657H276.02C278.452 94.0657 280.675 93.8018 282.69 93.2677C284.703 92.7368 286.528 91.6908 288.162 90.1329C289.796 88.5751 291.259 86.3146 292.552 83.3483C293.843 80.3852 294.985 76.4715 295.973 71.604H297L294.721 96.571H254.36V95.5441C255.65 95.2421 256.544 94.5935 257.04 93.6047C257.533 92.6191 257.781 91.0963 257.781 89.0456V27.7075C257.781 25.7332 257.533 24.2484 257.04 23.2597C256.544 22.2741 255.654 21.6255 254.36 21.3203V20.1821H254.356Z" fill="#BDBDBD"/>
<path d="M35.8242 96.5713L36.1167 95.4299C37.2008 94.8226 38.2182 94.1391 39.1752 93.3792C40.1322 92.6194 41.105 91.6116 42.097 90.3589C43.0921 89.1031 44.2366 87.4912 45.5338 85.5137C46.8309 83.5393 48.3951 81.0658 50.2264 78.1027L84.6136 19.6133H85.5261L85.4816 85.9683C85.4212 88.782 85.6024 90.9089 86.0221 92.3523C86.4417 93.7957 87.1761 94.8226 88.2221 95.4299L87.9296 96.5713H72.7676L73.1745 95.4299C75.8134 94.5937 77.3331 92.8833 77.7368 90.2985C77.8799 89.3861 77.9848 87.9808 78.0548 86.0796L78.4522 69.6617H58.7278L54.6965 76.5036C53.2404 79.012 52.0259 81.3106 51.053 83.3994C50.0802 85.4914 49.492 87.1828 49.2917 88.4736C48.7926 91.6656 49.9562 93.9452 52.7826 95.3154L52.3597 96.5713H35.8242ZM60.2571 67.1564H78.4999L79.2502 35.3476L60.2571 67.1564Z" fill="#BDBDBD"/>
<path d="M78.2808 20.1059L61.4083 19.3078L72.4945 12.2911L72.4182 12.1544L60.2987 17.9789L66.1232 5.85944L65.9865 5.78313L58.9698 16.8693L58.175 0H58.016L57.218 16.8693L50.2045 5.78313L50.0646 5.85944L55.8891 17.9789L43.7728 12.1544L43.6933 12.2911L54.7795 19.3078L37.9102 20.1059V20.2616L54.7795 21.0596L43.6933 28.0763L43.7728 28.213L55.8891 22.3886L50.0646 34.508L50.2045 34.5844L57.218 23.4982L58.016 40.3675H58.175L58.9698 23.4982L65.9865 34.5844L66.1232 34.508L60.2987 22.3886L72.4182 28.213L72.4945 28.0763L61.4083 21.0596L78.2808 20.2616V20.1059Z" fill="#BDBDBD"/>
</svg>
