<svg width="39" height="54" viewBox="0 0 39 54" fill="none" xmlns="http://www.w3.org/2000/svg">
<path d="M19.3843 31.98C20.3443 31.068 21.3283 30.156 22.3363 29.244C23.3443 28.332 24.4003 27.42 25.5043 26.508L25.6843 26.688C24.5323 28.224 23.4163 29.748 22.3363 31.26C21.2563 32.772 20.2123 34.296 19.2043 35.832C18.1723 34.296 17.1163 32.772 16.0363 31.26C14.9563 29.748 13.8523 28.224 12.7243 26.688L12.8683 26.508C13.9483 27.42 14.9923 28.332 16.0003 29.244C17.0323 30.156 18.0283 31.068 18.9883 31.98C18.8923 29.652 18.7483 27.336 18.5563 25.032C18.3883 22.728 18.1963 20.412 17.9803 18.084H20.4283C20.1883 20.412 19.9843 22.728 19.8163 25.032C19.6483 27.336 19.5043 29.652 19.3843 31.98Z" fill="#BDBDBD"/>
<rect x="1" y="1" width="37" height="52" rx="18.5" stroke="#BDBDBD" stroke-width="2"/>
</svg>
