<svg width="29" height="29" viewBox="0 0 29 29" fill="none" xmlns="http://www.w3.org/2000/svg">
<path d="M29 14.444L16.8797 13.8708L24.8434 8.82996L24.7886 8.73175L16.0827 12.916L20.2667 4.20942L20.1684 4.1546L15.128 12.1189L14.5571 0H14.4429L13.8697 12.1189L8.83154 4.1546L8.73106 4.20942L12.915 12.916L4.21137 8.73175L4.15428 8.82996L12.118 13.8708L0 14.444V14.556L12.118 15.1292L4.15428 20.17L4.21137 20.2683L12.915 16.084L8.73106 24.7906L8.83154 24.8454L13.8697 16.8811L14.4429 29H14.5571L15.128 16.8811L20.1684 24.8454L20.2667 24.7906L16.0827 16.084L24.7886 20.2683L24.8434 20.17L16.8797 15.1292L29 14.556V14.444Z" fill="#BDBDBD"/>
</svg>
